{
	"scene": 0,
	"asset": { "generator": "ImageToStl.com", "version": "2.0" },
	"scenes": [{ "name": "Scene", "nodes": [0] }],
	"nodes": [
		{ "name": "Node0", "children": [1] },
		{ "name": "Node1", "mesh": 0 }
	],
	"materials": [
		{
			"name": "Body",
			"pbrMetallicRoughness": {
				"baseColorFactor": [1.0, 0.0, 0.0, 1.0],
				"metallicFactor": 0.5,
				"roughnessFactor": 0.75
			},
			"emissiveFactor": [0.0, 0.0, 0.0],
			"doubleSided": true
		},
		{
			"name": "Black",
			"pbrMetallicRoughness": {
				"baseColorFactor": [0.0, 0.0, 0.0, 1.0],
				"metallicFactor": 0.0,
				"roughnessFactor": 0.75
			},
			"emissiveFactor": [0.0, 0.0, 0.0],
			"doubleSided": true
		},
		{
			"name": "Window",
			"pbrMetallicRoughness": {
				"baseColorFactor": [0.0, 0.0, 0.0, 1.0],
				"metallicFactor": 1.0,
				"roughnessFactor": 0.75
			},
			"emissiveFactor": [0.0, 0.0, 0.0],
			"doubleSided": true
		},
		{
			"name": "Bumpers",
			"pbrMetallicRoughness": {
				"baseColorFactor": [0.073236, 0.073236, 0.073236, 1.0],
				"metallicFactor": 0.0,
				"roughnessFactor": 0.75
			},
			"emissiveFactor": [0.0, 0.0, 0.0],
			"doubleSided": true
		},
		{
			"name": "Lights",
			"pbrMetallicRoughness": {
				"baseColorFactor": [1.0, 1.0, 1.0, 1.0],
				"metallicFactor": 0.0,
				"roughnessFactor": 0.75
			},
			"emissiveFactor": [0.0, 0.0, 0.0],
			"doubleSided": true
		},
		{
			"name": "Bottom",
			"pbrMetallicRoughness": {
				"baseColorFactor": [0.0, 0.0, 0.0, 1.0],
				"metallicFactor": 0.0,
				"roughnessFactor": 0.75
			},
			"emissiveFactor": [0.0, 0.0, 0.0],
			"doubleSided": true
		},
		{
			"name": "Tires",
			"pbrMetallicRoughness": {
				"baseColorFactor": [0.0, 0.0, 0.0, 1.0],
				"metallicFactor": 0.5,
				"roughnessFactor": 0.75
			},
			"emissiveFactor": [0.0, 0.0, 0.0],
			"doubleSided": true
		},
		{
			"name": "Wheels",
			"pbrMetallicRoughness": {
				"baseColorFactor": [0.615177, 0.615177, 0.615177, 1.0],
				"metallicFactor": 0.5,
				"roughnessFactor": 0.75
			},
			"emissiveFactor": [0.0, 0.0, 0.0],
			"doubleSided": true
		}
	],
	"meshes": [
		{
			"name": "Mesh0",
			"primitives": [
				{ "indices": 2, "material": 0, "attributes": { "POSITION": 0, "NORMAL": 1 } },
				{ "indices": 3, "material": 1, "attributes": { "POSITION": 0, "NORMAL": 1 } },
				{ "indices": 4, "material": 2, "attributes": { "POSITION": 0, "NORMAL": 1 } },
				{ "indices": 5, "material": 3, "attributes": { "POSITION": 0, "NORMAL": 1 } },
				{ "indices": 6, "material": 4, "attributes": { "POSITION": 0, "NORMAL": 1 } },
				{ "indices": 7, "material": 5, "attributes": { "POSITION": 0, "NORMAL": 1 } },
				{ "indices": 8, "material": 6, "attributes": { "POSITION": 0, "NORMAL": 1 } },
				{ "indices": 9, "material": 7, "attributes": { "POSITION": 0, "NORMAL": 1 } }
			]
		}
	],
	"accessors": [
		{
			"bufferView": 0,
			"componentType": 5126,
			"count": 1565,
			"type": "VEC3",
			"min": [-1.0425566, -2.390192, -3.3080578e-6],
			"max": [1.0574433, 2.274808, 1.5899967]
		},
		{ "bufferView": 1, "componentType": 5126, "count": 1565, "type": "VEC3" },
		{ "bufferView": 2, "componentType": 5123, "count": 606, "type": "SCALAR" },
		{ "bufferView": 3, "componentType": 5123, "count": 168, "type": "SCALAR" },
		{ "bufferView": 4, "componentType": 5123, "count": 186, "type": "SCALAR" },
		{ "bufferView": 5, "componentType": 5123, "count": 480, "type": "SCALAR" },
		{ "bufferView": 6, "componentType": 5123, "count": 12, "type": "SCALAR" },
		{ "bufferView": 7, "componentType": 5123, "count": 144, "type": "SCALAR" },
		{ "bufferView": 8, "componentType": 5123, "count": 5376, "type": "SCALAR" },
		{ "bufferView": 9, "componentType": 5123, "count": 720, "type": "SCALAR" }
	],
	"bufferViews": [
		{ "target": 34962, "buffer": 0, "byteLength": 18780, "byteOffset": 0 },
		{ "target": 34962, "buffer": 0, "byteLength": 18780, "byteOffset": 18780 },
		{ "target": 34963, "buffer": 0, "byteLength": 1212, "byteOffset": 37560 },
		{ "target": 34963, "buffer": 0, "byteLength": 336, "byteOffset": 38772 },
		{ "target": 34963, "buffer": 0, "byteLength": 372, "byteOffset": 39108 },
		{ "target": 34963, "buffer": 0, "byteLength": 960, "byteOffset": 39480 },
		{ "target": 34963, "buffer": 0, "byteLength": 24, "byteOffset": 40440 },
		{ "target": 34963, "buffer": 0, "byteLength": 288, "byteOffset": 40464 },
		{ "target": 34963, "buffer": 0, "byteLength": 10752, "byteOffset": 40752 },
		{ "target": 34963, "buffer": 0, "byteLength": 1440, "byteOffset": 51504 }
	],
	"buffers": [
		{
			"byteLength": 52944,
			"uri": "data:application/octet-stream;base64,"
		}
	]
}
