{
	"asset":{
		"version":"2.0",
		"generator":"Created using the official Cinema 4D glTF Exporter 1.000x284978"
	},
	"scenes":[{
		"nodes":[0]
	}],
	"accessors":[{
		"bufferView":0,
		"type":"SCALAR",
		"componentType":5123,
		"count":756,
		"byteOffset":0,
		"min":[0],
		"max":[367]
	},
	{
		"bufferView":1,
		"type":"VEC3",
		"componentType":5126,
		"count":368,
		"byteOffset":0,
		"min":[-11.006963729858399,
		9.540568351745606,
		11.877458572387696],
		"max":[52.993038177490237,
		61.793418884277347,
		56.458106994628909]
	},
	{
		"bufferView":1,
		"type":"VEC3",
		"componentType":5126,
		"count":368,
		"byteOffset":12,
		"min":[-1.0,
		-1.0,
		-1.0],
		"max":[1.0,
		1.0,
		1.0]
	},
	{
		"bufferView":1,
		"type":"VEC2",
		"componentType":5126,
		"count":368,
		"byteOffset":24,
		"min":[0.0003256501513533294,
		0.0003439689753577113],
		"max":[0.9990243911743164,
		0.9990243911743164]
	}],
	"nodes":[{
		"name":"House 1.3",
		"translation":[-87.7293930053711,
		-0.7425864934921265,
		-61.67778396606445],
		"rotation":[0.0,
		0.0,
		0.0,
		-1.0],
		"scale":[1.0,
		1.0,
		1.0],
		"mesh":0
	}],
	"buffers":[{
		"uri":"data:application/octet-stream;base64,",
		"byteLength":13288
	}],
	"meshes":[{
		"name":"House 1.3",
		"primitives":[{
			"attributes":{
				"POSITION":1,
				"NORMAL":2,
				"TEXCOORD_0":3
			},
			"indices":0,
			"material":0
		}]
	}],
	"bufferViews":[{
		"buffer":0,
		"byteOffset":0,
		"byteLength":1512,
		"target":34963
	},
	{
		"buffer":0,
		"byteOffset":1512,
		"byteLength":11776,
		"target":34962,
		"byteStride":32
	}],
	"images":[{
		"uri":"data:image/jpeg;base64,"
	}],
	"samplers":[{
		"magFilter":9729,
		"minFilter":9729,
		"wrapS":10497,
		"wrapT":10497
	}],
	"textures":[{
		"source":0,
		"sampler":0
	}],
	"materials":[{
		"emissiveTexture":{
			"index":0
		},
		"pbrMetallicRoughness":{
			"baseColorFactor":[1.0,
			1.0,
			1.0,
			1.0],
			"metallicFactor":0.0,
			"roughnessFactor":0.5
		},
		"emissiveFactor":[1.0,
		1.0,
		1.0],
		"alphaMode":"OPAQUE",
		"doubleSided":false,
		"name":"House 1"
	}]
}